<svg xmlns="http://www.w3.org/2000/svg" width="16" height="16" viewBox="0 0 16 16">
  <defs>
    <style>
      .cls-1 {
        fill: #fff;
        fill-rule: evenodd;
      }
    </style>
  </defs>
  <path class="cls-1" d="M1336,37.992A8,8,0,1,1,1343.97,46,8.009,8.009,0,0,1,1336,37.992Zm7.49-3.475-2.67-.156a11.166,11.166,0,0,0-.56,3.253h3.23v-3.1Zm1.02,0v3.1h3.23a11.4,11.4,0,0,0-.56-3.253Zm-1.02,6.967V38.638h-3.22a11.119,11.119,0,0,0,.55,3Zm4.24-2.847h-3.22v2.847l2.67,0.155A11.234,11.234,0,0,0,1347.73,38.636Zm3.27-1.019c-0.04-.257-0.06-0.495-0.09-0.73a6.963,6.963,0,0,0-1.16-2.866,0.125,0.125,0,0,0-.16-0.059c-0.24.053-.48,0.1-0.72,0.14-0.22.04-.44,0.077-0.67,0.117a12.722,12.722,0,0,1,.55,3.4H1351Zm-11.75,0a12.972,12.972,0,0,1,.54-3.394c-0.05-.014-0.08-0.027-0.11-0.033-0.42-.075-0.83-0.145-1.24-0.228a0.183,0.183,0,0,0-.22.088,7.033,7.033,0,0,0-1.09,2.6c-0.06.317-.09,0.641-0.13,0.971h2.25Zm8.96,4.156c0.05,0.014.07,0.025,0.1,0.03,0.42,0.076.84,0.147,1.26,0.23a0.161,0.161,0,0,0,.2-0.082,7.009,7.009,0,0,0,1.03-2.309c0.08-.33.12-0.668,0.19-1.014h-2.25A13,13,0,0,1,1348.21,41.776Zm-11.19-3.145c0.03,0.171.05,0.326,0.07,0.48a6.912,6.912,0,0,0,1.15,2.855,0.136,0.136,0,0,0,.17.072c0.29-.062.57-0.112,0.86-0.165,0.17-.032.34-0.061,0.52-0.093a12.6,12.6,0,0,1-.53-3.149h-2.24Zm4.18,3.979a4.187,4.187,0,0,0,2.29,2.33V42.49Zm2.29-11.552a4.192,4.192,0,0,0-2.29,2.331l2.29,0.12V31.059Zm3.31,11.551-2.29-.12v2.452A4.189,4.189,0,0,0,1346.8,42.61Zm0-9.22a4.171,4.171,0,0,0-2.29-2.329v2.449Zm2.16-.317a6.851,6.851,0,0,0-1.95-1.389c0.26,0.483.53,0.984,0.8,1.482a0.238,0.238,0,0,0,.14.074,0.512,0.512,0,0,0,.16-0.021C1348.38,33.172,1348.66,33.125,1348.96,33.073Zm-7.92,11.266a0.417,0.417,0,0,0-.04-0.087c-0.27-.472-0.54-0.941-0.81-1.416a0.119,0.119,0,0,0-.15-0.077c-0.13.023-.26,0.037-0.39,0.059-0.19.034-.39,0.072-0.61,0.113A7.1,7.1,0,0,0,1341.04,44.339Zm5.97-.024a6.814,6.814,0,0,0,1.95-1.391c-0.37-.061-0.71-0.119-1.04-0.168a0.125,0.125,0,0,0-.1.069Q1347.415,43.567,1347.01,44.315Zm-6-12.639a7.073,7.073,0,0,0-1.98,1.4l1.08,0.177C1340.42,32.715,1340.71,32.2,1341.01,31.676Z" transform="translate(-1336 -30)"/>
</svg>
