<svg xmlns="http://www.w3.org/2000/svg" width="9" height="11" viewBox="0 0 9 11">
  <defs>
    <style>
      .cls-1 {
        fill: #01a7e3;
        fill-rule: evenodd;
      }
    </style>
  </defs>
  <path class="cls-1" d="M1695.5,334.854c-1.06,0-2.12,0-3.18,0a1.231,1.231,0,0,1-1.22-.778,1.246,1.246,0,0,1-.09-0.466C1691,332.3,1691,331,1691,329.687a1.21,1.21,0,0,1,.51-1.01,0.194,0.194,0,0,0,.05-0.148,4.052,4.052,0,0,1,3.18-4.595,3.976,3.976,0,0,1,4.47,2.5,4.19,4.19,0,0,1,.23,2.1,0.171,0.171,0,0,0,.05.137,1.224,1.224,0,0,1,.51,1.035v3.858a1.236,1.236,0,0,1-1.3,1.285C1697.63,334.857,1696.57,334.854,1695.5,334.854Zm2.46-6.423a2.622,2.622,0,0,0-1.06-2.686,2.465,2.465,0,0,0-2.83.016,2.632,2.632,0,0,0-1.03,2.67h4.92Zm-3.01,4.136v0.351a0.55,0.55,0,1,0,1.1,0c0-.234.01-0.468,0-0.7a0.207,0.207,0,0,1,.1-0.2,1.091,1.091,0,0,0,.48-1.1,1.144,1.144,0,0,0-.98-0.941,1.161,1.161,0,0,0-1.17.6,1.07,1.07,0,0,0,.23,1.305,0.6,0.6,0,0,1,.24.594v0.078Z" transform="translate(-1691 -323.844)"/>
</svg>
